<?xml version="1.0" standalone="no"?>
<!DOCTYPE svg PUBLIC "-//W3C//DTD SVG 20010904//EN"
 "http://www.w3.org/TR/2001/REC-SVG-20010904/DTD/svg10.dtd">
<svg version="1.0" xmlns="http://www.w3.org/2000/svg"
 width="300.000000pt" height="247.000000pt" viewBox="0 0 300.000000 247.000000"
 preserveAspectRatio="xMidYMid meet">
<metadata>
Created by potrace 1.10, written by Peter Selinger 2001-2011
</metadata>
<g transform="translate(0.000000,247.000000) scale(0.100000,-0.100000)"
fill="#000000" stroke="none">
<path d="M1223 2408 c-42 -20 -47 -99 -7 -121 10 -6 14 -27 14 -72 l0 -64 -47
-6 c-83 -12 -176 -43 -242 -82 -105 -63 -206 -185 -250 -304 -6 -16 -26 -35
-53 -48 -24 -12 -51 -33 -62 -47 -24 -34 -32 -105 -16 -144 15 -37 74 -90 100
-90 14 0 27 -16 45 -54 67 -143 207 -236 352 -236 l63 0 0 -32 0 -33 -103 2
c-152 3 -205 -26 -228 -122 -15 -64 -34 -102 -73 -143 -41 -45 -77 -62 -126
-62 -74 0 -130 45 -151 123 -10 37 -8 41 17 68 23 24 29 40 32 92 6 89 -7 131
-41 135 -35 4 -41 -12 -28 -79 12 -68 -2 -103 -43 -107 -38 -5 -47 7 -61 75
-12 59 -30 81 -60 69 -15 -5 -16 -14 -10 -64 11 -91 56 -152 110 -152 9 0 15
-10 15 -25 0 -38 27 -96 61 -131 45 -47 32 -70 -95 -167 -53 -41 -80 -99 -80
-172 0 -67 16 -105 64 -152 l31 -30 -30 -6 c-37 -8 -40 -23 -8 -31 237 -59
1210 -70 1793 -21 55 5 144 26 144 35 0 21 -179 50 -310 50 -82 0 -98 9 -77
41 24 38 28 91 13 144 -13 42 -13 52 0 84 25 59 29 149 10 216 -13 44 -30 71
-71 114 -35 37 -57 70 -64 98 -15 56 -54 100 -99 113 -20 5 -88 10 -150 10
l-113 0 3 28 c3 26 6 27 73 33 88 8 157 32 218 76 52 38 120 126 137 178 8 24
18 34 39 38 68 14 121 96 107 169 -8 45 -59 104 -101 118 -19 6 -35 17 -35 24
0 8 -16 44 -35 82 -85 169 -239 281 -433 314 l-72 12 0 62 c0 50 4 67 20 81
30 27 27 78 -6 104 -29 23 -48 25 -81 9z m61 -54 c7 -19 -11 -57 -26 -52 -19
7 -32 34 -25 52 8 21 43 21 51 0z m126 -293 c117 -33 197 -85 268 -176 74 -94
104 -179 105 -296 1 -184 -87 -319 -242 -368 -66 -21 -85 -22 -309 -19 l-239
3 -68 35 c-86 44 -138 104 -170 196 -89 251 74 548 340 622 94 27 229 28 315
3z m-714 -481 c0 -66 -1 -120 -3 -120 -2 0 -21 9 -41 19 -85 43 -81 154 6 200
20 11 37 20 37 21 0 0 0 -54 1 -120z m1192 77 c12 -11 27 -38 33 -59 8 -33 7
-45 -8 -71 -17 -29 -78 -71 -92 -63 -3 2 -5 54 -3 115 3 110 4 112 25 105 12
-3 32 -16 45 -27z m-518 -503 c0 -3 -5 -14 -10 -25 -8 -14 -7 -27 5 -49 18
-35 24 -33 -120 -32 -114 0 -106 -2 -93 28 9 19 9 33 1 55 l-11 29 114 0 c63
0 114 -3 114 -6z m291 -173 l29 -29 0 -184 0 -184 -48 -13 c-34 -8 -61 -24
-88 -52 l-38 -39 -247 0 -247 0 -39 40 c-26 25 -56 44 -86 52 l-47 12 0 184 0
184 29 29 29 29 362 0 362 0 29 -29z m-853 -163 c-4 -27 -28 -36 -28 -10 0 20
8 32 22 32 5 0 8 -10 6 -22z m1008 -74 c12 -32 15 -62 11 -110 -6 -76 -15 -91
-46 -75 -20 11 -21 20 -21 138 0 125 0 126 20 108 10 -9 27 -37 36 -61z
m-1036 -68 l0 -104 -34 -20 c-79 -47 -114 -153 -78 -235 25 -57 25 -57 -114
-57 -85 0 -112 4 -144 20 -59 30 -85 74 -85 142 0 64 13 83 102 149 29 22 62
56 74 77 21 37 22 37 88 37 54 0 74 5 114 28 26 16 53 37 60 48 6 10 13 19 14
19 2 0 3 -47 3 -104z m57 -123 c2 -6 -7 -13 -21 -15 -22 -4 -24 -3 -15 14 11
20 30 20 36 1z m90 -87 c31 -36 38 -70 24 -114 -15 -49 -55 -77 -109 -77 -37
0 -48 5 -78 37 -40 44 -45 87 -15 132 28 43 59 57 111 52 32 -3 50 -11 67 -30z
m822 19 c16 -8 36 -31 46 -51 51 -107 -83 -214 -172 -137 -47 42 -55 97 -23
151 31 51 93 66 149 37z m-202 -60 c-10 -33 -11 -34 -28 -19 -21 19 -17 31 15
44 11 5 22 9 23 9 0 1 -4 -15 -10 -34z m-508 9 c3 -3 -3 -12 -12 -22 -16 -15
-19 -15 -27 -2 -17 27 -12 42 13 34 12 -3 24 -8 26 -10z m467 -84 c4 -22 11
-43 15 -46 5 -3 9 -11 9 -17 0 -9 -66 -12 -260 -12 -227 0 -259 2 -254 15 3 8
10 34 17 58 l11 42 228 0 228 0 6 -40z m-235 -110 l250 0 25 25 25 25 40 -27
c54 -36 114 -36 168 0 28 19 41 23 41 14 0 -22 34 -47 70 -52 32 -4 47 -11 39
-19 -19 -19 -1098 -29 -1239 -12 -36 5 -73 8 -82 8 -10 0 -20 3 -23 9 -4 5 12
9 35 9 34 0 48 6 75 33 l33 33 32 -22 c49 -34 92 -38 144 -13 25 11 50 27 56
35 10 11 16 8 37 -16 l25 -30 249 0z"/>
<path d="M1073 1746 c-22 -24 -45 -36 -80 -42 -38 -7 -49 -13 -51 -31 -5 -35
27 -45 86 -28 84 25 140 86 112 120 -18 22 -31 18 -67 -19z"/>
<path d="M1386 1724 c-20 -20 -9 -44 36 -75 40 -29 137 -39 156 -16 23 27 4
44 -54 49 -42 4 -61 11 -82 31 -33 31 -36 32 -56 11z"/>
<path d="M1032 1594 c-31 -21 -30 -69 3 -90 29 -19 60 -11 81 21 18 27 7 57
-26 75 -25 13 -32 13 -58 -6z"/>
<path d="M1414 1585 c-18 -19 -23 -31 -19 -48 15 -47 61 -61 95 -27 27 27 25
55 -6 79 -34 27 -40 26 -70 -4z"/>
<path d="M1182 1436 c-83 -27 -149 -98 -122 -131 17 -21 21 -20 66 21 48 45
71 54 136 54 59 0 106 -20 143 -61 28 -32 42 -33 59 -6 14 22 -17 63 -77 100
-55 35 -140 44 -205 23z"/>
<path d="M2280 1514 c-106 -46 -165 -164 -158 -314 l3 -80 -53 0 c-43 0 -58
-5 -77 -25 l-25 -24 0 -293 c0 -275 1 -295 20 -326 11 -18 34 -41 52 -52 31
-19 51 -20 329 -20 422 0 399 -23 399 403 l0 288 -25 24 c-20 21 -34 25 -80
25 l-55 0 0 113 c0 134 -14 173 -85 235 -70 62 -167 80 -245 46z m159 -72 c19
-9 48 -34 65 -55 30 -37 31 -43 34 -153 l4 -114 -171 0 -171 0 0 99 c0 110 8
142 48 185 52 56 128 71 191 38z m261 -667 c-1 -292 -3 -305 -56 -325 -14 -6
-140 -10 -280 -10 -283 0 -303 4 -323 61 -12 35 -16 531 -4 542 4 4 155 6 335
5 l329 -3 -1 -270z"/>
<path d="M2323 934 c-39 -20 -67 -74 -58 -114 4 -16 20 -41 36 -54 23 -20 28
-29 21 -43 -6 -10 -15 -44 -22 -76 -15 -75 -6 -87 65 -87 93 0 96 5 69 115
l-16 64 26 31 c73 87 -21 215 -121 164z m90 -48 c20 -30 18 -60 -8 -111 -15
-30 -24 -59 -20 -64 3 -6 9 -31 12 -56 5 -46 1 -51 -37 -45 -22 3 -22 3 -9 69
11 59 11 62 -15 99 -37 54 -31 107 14 124 19 8 53 -1 63 -16z"/>
</g>
</svg>
